<svg xmlns="http://www.w3.org/2000/svg"  viewBox="0 0 50 50" width="50px" height="50px"><path d="M 8 16 C 5.195313 16 3 18.285156 3 21.199219 L 3 33 L 7 33 L 7 21.199219 C 7 20.601563 7.308594 20 8 20 L 11.800781 20 C 12.507813 20 13 20.492188 13 21.199219 L 13 33 L 17 33 L 17 21.199219 C 17 20.601563 17.308594 20 18 20 L 21.800781 20 C 22.507813 20 23 20.492188 23 21.199219 L 23 33 L 27 33 L 27 21.199219 C 27 18.285156 24.714844 16 21.800781 16 L 18 16 C 16.851563 16 15.789063 16.363281 14.949219 17.0625 C 14.140625 16.382813 13.0625 16.003906 11.902344 16.003906 Z M 35.199219 16 C 32.285156 16 30 18.285156 30 21.199219 L 30 40 L 34 40 L 34 33 L 41.800781 33 C 44.714844 33 47 30.714844 47 27.800781 L 47 21.199219 C 47 18.285156 44.714844 16 41.800781 16 Z M 35.199219 20 L 41.800781 20 C 42.507813 20 43 20.492188 43 21.199219 L 43 27.800781 C 43 28.507813 42.507813 29 41.800781 29 L 35.199219 29 C 34.492188 29 34 28.507813 34 27.800781 L 34 21.199219 C 34 20.492188 34.492188 20 35.199219 20 Z"/></svg>